<svg width="16" height="14" viewBox="0 0 16 14" fill="none" xmlns="http://www.w3.org/2000/svg">
    <path d="M6.73171 13.7948C7.03264 14.0795 7.50733 14.0662 7.79196 13.7653C8.07658 13.4644 8.06336 12.9897 7.76243 12.7051L2.52339 7.74995H15.2471C15.6613 7.74995 15.9971 7.41416 15.9971 6.99995C15.9971 6.58574 15.6613 6.24995 15.2471 6.24995H2.52112L7.76243 1.29269C8.06336 1.00807 8.07658 0.533379 7.79196 0.232445C7.50733 -0.0684893 7.03264 -0.0817101 6.73171 0.202915L0.314486 6.27236C0.148187 6.42964 0.0481858 6.62975 0.014482 6.83854C0.00307989 6.89053 -0.00292969 6.94454 -0.00292969 6.99995C-0.00292969 7.05754 0.00356197 7.11362 0.0158534 7.16749C0.0508413 7.37328 0.150385 7.57019 0.314486 7.7254L6.73171 13.7948Z" fill="#683B8F"/>
</svg>
