<svg width="14" height="14" viewBox="0 0 14 14" fill="none" xmlns="http://www.w3.org/2000/svg">
  <path d="M10.5 8C10.2239 8 10 8.22386 10 8.5C10 8.77614 10.2239 9 10.5 9H11.5C11.7761 9 12 8.77614 12 8.5C12 8.22386 11.7761 8 11.5 8H10.5ZM0 1.5C0 0.671573 0.671573 0 1.5 0H11C12.1046 0 13 0.895431 13 2V2.26756C13.5978 2.61337 14 3.25972 14 4V12C14 13.1046 13.1046 14 12 14H2.5C1.11929 14 0 12.8807 0 11.5V1.5ZM11 1H1.5C1.22386 1 1 1.22386 1 1.5C1 1.77614 1.22386 2 1.5 2H12C12 1.44772 11.5523 1 11 1ZM1.5 3C1.32468 3 1.15639 2.96992 1 2.91465V11.5C1 12.3284 1.67157 13 2.5 13H12C12.5523 13 13 12.5523 13 12V4C13 3.44772 12.5523 3 12 3H1.5Z" fill="#262626"/>
</svg>
