<svg width="44" height="45" viewBox="0 0 44 45" fill="none" xmlns="http://www.w3.org/2000/svg">
  <rect y="0.5" width="44" height="44" rx="6" fill="#EFEFEF"/>
  <path d="M22.8211 23H26.5C26.7761 23 27 22.7761 27 22.5C27 22.2239 26.7761 22 26.5 22H22.8211L23.8196 21.1263C24.0274 20.9445 24.0485 20.6286 23.8666 20.4208C23.6848 20.2129 23.3689 20.1919 23.1611 20.3737L21.1611 22.1237C21.0526 22.2187 20.9904 22.3558 20.9904 22.5C20.9904 22.6442 21.0526 22.7814 21.1611 22.8763L23.1611 24.6263C23.3689 24.8081 23.6848 24.7871 23.8666 24.5793C24.0485 24.3714 24.0274 24.0556 23.8196 23.8737L22.8211 23ZM16 16.5C14.8954 16.5 14 17.3954 14 18.5V26.5C14 27.6046 14.8954 28.5 16 28.5H28C29.1046 28.5 30 27.6046 30 26.5V18.5C30 17.3954 29.1046 16.5 28 16.5H16ZM15 18.5C15 17.9477 15.4477 17.5 16 17.5H19L19 27.5H16C15.4477 27.5 15 27.0523 15 26.5V18.5ZM20 27.5L20 17.5H28C28.5523 17.5 29 17.9477 29 18.5V26.5C29 27.0523 28.5523 27.5 28 27.5H20Z" fill="#262626"/>
</svg>
