<svg width="20" height="21" viewBox="0 0 20 21" fill="none" xmlns="http://www.w3.org/2000/svg">
  <path d="M5 4.5V9.52242C4.65659 9.55337 4.32228 9.61588 4 9.70703V4.5C4 3.39543 4.89543 2.5 6 2.5H10.5858C10.9836 2.5 11.3651 2.65804 11.6464 2.93934L15.5607 6.85355C15.842 7.13486 16 7.51639 16 7.91421V16.5C16 17.6046 15.1046 18.5 14 18.5H9.74284C9.99647 18.1929 10.2174 17.8578 10.4003 17.5H14C14.5523 17.5 15 17.0523 15 16.5V8.5H11.5C10.6716 8.5 10 7.82843 10 7V3.5H6C5.44772 3.5 5 3.94772 5 4.5ZM11.5 7.5H14.7929L11 3.70711V7C11 7.27614 11.2239 7.5 11.5 7.5ZM5.5 19.5C7.98528 19.5 10 17.4853 10 15C10 12.5147 7.98528 10.5 5.5 10.5C3.01472 10.5 1 12.5147 1 15C1 17.4853 3.01472 19.5 5.5 19.5ZM5 13C5 12.7239 5.22386 12.5 5.5 12.5C5.77614 12.5 6 12.7239 6 13V14.5H7C7.27614 14.5 7.5 14.7239 7.5 15C7.5 15.2761 7.27614 15.5 7 15.5H5.5C5.22386 15.5 5 15.2761 5 15V13Z" fill="#262626"/>
</svg>
