<svg width="32" height="32" viewBox="0 0 32 32" fill="none" xmlns="http://www.w3.org/2000/svg">
  <path d="M21.5 22.9988C21.7761 22.9988 22 23.2226 22 23.4988C22 23.7442 21.8231 23.9484 21.5899 23.9907L21.5 23.9988H10.5C10.2239 23.9988 10 23.7749 10 23.4988C10 23.2533 10.1769 23.0492 10.4101 23.0068L10.5 22.9988H21.5ZM16.0001 8.00098C16.2456 8.00098 16.4497 8.17798 16.492 8.41124L16.5 8.50112L16.496 20.295L20.1414 16.6466C20.3148 16.4729 20.5842 16.4534 20.7792 16.5882L20.8485 16.646C21.0222 16.8194 21.0418 17.0888 20.907 17.2838L20.8492 17.3531L16.3574 21.8531C16.285 21.9257 16.1957 21.9714 16.1021 21.9901L15.9961 21.9999C15.8351 21.9999 15.6919 21.9237 15.6005 21.8056L11.1439 17.3537C10.9485 17.1586 10.9482 16.842 11.1434 16.6466C11.3168 16.4729 11.5862 16.4534 11.7812 16.5883L11.8505 16.6461L15.496 20.287L15.5 8.50083C15.5001 8.22469 15.724 8.00098 16.0001 8.00098Z" fill="#262626"/>
</svg>
