<svg width="22" height="22" viewBox="0 0 20 20" fill="none" xmlns="http://www.w3.org/2000/svg">
  <path fill-rule="evenodd" clip-rule="evenodd" d="M2 4H18V15C18 15.5523 17.5523 16 17 16H3C2.44772 16 2 15.5523 2 15V4Z" fill="#C51918"/>
  <path fill-rule="evenodd" clip-rule="evenodd" d="M2 4H18V16H2V4Z" fill="#E31D1C"/>
  <path fill-rule="evenodd" clip-rule="evenodd" d="M13.241 13.8131L10.0829 5.35034H9.94588L6.89758 13.8131L10.0633 11.9105L13.241 13.8131ZM9.7333 8.11105L10.0719 6.79188L10.4232 8.14884L11.4325 10.9771L12.0251 12.3463L10.7457 11.445L10.0625 11.036L9.39034 11.4399L8.14067 12.3463L8.71838 10.949L9.7333 8.11105Z" fill="#579D20"/>
  <path fill-rule="evenodd" clip-rule="evenodd" d="M8.33127 10.7365L10.0792 11.8985L11.7103 10.7365L14.8082 8.11816H5.19263L8.33127 10.7365ZM8.36754 9.73699L7.17874 9.00951H8.62908H11.511H12.7903L11.7699 9.65588L10.0716 10.9444L8.36754 9.73699Z" fill="#579D20"/>
</svg>
