<svg width="40" height="40" viewBox="0 0 40 40" fill="none" xmlns="http://www.w3.org/2000/svg">
<rect width="40" height="40" rx="8" fill="#F3ECFB"/>
<path d="M25.5 14C26.8807 14 28 15.1193 28 16.5V24.5C28 25.8807 26.8807 27 25.5 27H14.5C13.1193 27 12 25.8807 12 24.5V16.5C12 15.1193 13.1193 14 14.5 14H25.5ZM27 17.961L20.2535 21.931C20.1231 22.0077 19.9666 22.0205 19.8275 21.9693L19.7465 21.931L13 17.963V24.5C13 25.3284 13.6716 26 14.5 26H25.5C26.3284 26 27 25.3284 27 24.5V17.961ZM25.5 15H14.5C13.6716 15 13 15.6716 13 16.5V16.802L20 20.9199L27 16.801V16.5C27 15.6716 26.3284 15 25.5 15Z" fill="#262626"/>
</svg>
