<svg width="21" height="21" viewBox="0 0 21 21" fill="none" xmlns="http://www.w3.org/2000/svg">
  <path d="M5.91016 4.5V9.52242C5.56675 9.55337 5.23244 9.61588 4.91016 9.70703V4.5C4.91016 3.39543 5.80559 2.5 6.91016 2.5H11.4959C11.8938 2.5 12.2753 2.65804 12.5566 2.93934L16.4708 6.85355C16.7521 7.13486 16.9102 7.51639 16.9102 7.91421V16.5C16.9102 17.6046 16.0147 18.5 14.9102 18.5H10.653C10.9066 18.1929 11.1276 17.8578 11.3104 17.5H14.9102C15.4624 17.5 15.9102 17.0523 15.9102 16.5V8.5H12.4102C11.5817 8.5 10.9102 7.82843 10.9102 7V3.5H6.91016C6.35787 3.5 5.91016 3.94772 5.91016 4.5ZM12.4102 7.5H15.703L11.9102 3.70711V7C11.9102 7.27614 12.134 7.5 12.4102 7.5ZM6.41016 19.5C8.89544 19.5 10.9102 17.4853 10.9102 15C10.9102 12.5147 8.89544 10.5 6.41016 10.5C3.92488 10.5 1.91016 12.5147 1.91016 15C1.91016 17.4853 3.92488 19.5 6.41016 19.5ZM5.91016 13C5.91016 12.7239 6.13401 12.5 6.41016 12.5C6.6863 12.5 6.91016 12.7239 6.91016 13V14.5H7.91016C8.1863 14.5 8.41016 14.7239 8.41016 15C8.41016 15.2761 8.1863 15.5 7.91016 15.5H6.41016C6.13401 15.5 5.91016 15.2761 5.91016 15V13Z" fill="#262626"/>
</svg>
