<svg width="16" height="16" viewBox="0 0 16 16" fill="none" xmlns="http://www.w3.org/2000/svg">
  <path d="M4.75 0H13.25C14.7688 0 16 1.23122 16 2.75V11.25C16 12.7688 14.7688 14 13.25 14H9.12132L8.12132 13H13.25C14.2165 13 15 12.2165 15 11.25V2.75C15 1.7835 14.2165 1 13.25 1H4.75C3.7835 1 3 1.7835 3 2.75V6.02746C2.65327 6.06579 2.31841 6.14352 2 6.25606V2.75C2 1.23122 3.23122 0 4.75 0ZM8.5 11C8.22386 11 8 10.7761 8 10.5C8 10.2239 8.22386 10 8.5 10H12.5C12.7761 10 13 10.2239 13 10.5C13 10.7761 12.7761 11 12.5 11H8.5ZM6.5 4.25C6.5 4.66421 6.16421 5 5.75 5C5.33579 5 5 4.66421 5 4.25C5 3.83579 5.33579 3.5 5.75 3.5C6.16421 3.5 6.5 3.83579 6.5 4.25ZM8.5 4C8.22386 4 8 4.22386 8 4.5C8 4.77614 8.22386 5 8.5 5H12.5C12.7761 5 13 4.77614 13 4.5C13 4.22386 12.7761 4 12.5 4H8.5ZM8.5 7C8.22386 7 8 7.22386 8 7.5C8 7.77614 8.22386 8 8.5 8H12.5C12.7761 8 13 7.77614 13 7.5C13 7.22386 12.7761 7 12.5 7H8.5ZM3.5 14C4.2862 14 5.01185 13.7408 5.59615 13.3031L8.14644 15.8535C8.3417 16.0488 8.65828 16.0488 8.85355 15.8535C9.04881 15.6583 9.04882 15.3417 8.85356 15.1464L6.30324 12.596C6.74082 12.0117 7 11.2861 7 10.5C7 8.567 5.433 7 3.5 7C1.567 7 0 8.567 0 10.5C0 12.433 1.567 14 3.5 14ZM3.5 13C2.11929 13 1 11.8807 1 10.5C1 9.11929 2.11929 8 3.5 8C4.88071 8 6 9.11929 6 10.5C6 11.8807 4.88071 13 3.5 13Z" fill="#262626"/>
</svg>
