<svg width="12" height="14" viewBox="0 0 12 14" fill="none" xmlns="http://www.w3.org/2000/svg">
  <path d="M6 0C4.10645 0 2.57143 1.567 2.57143 3.5C2.57143 5.433 4.10645 7 6 7C7.89355 7 9.42857 5.433 9.42857 3.5C9.42857 1.567 7.89355 0 6 0ZM3.42857 3.5C3.42857 2.05025 4.57984 0.875 6 0.875C7.42016 0.875 8.57143 2.05025 8.57143 3.5C8.57143 4.94975 7.42016 6.125 6 6.125C4.57984 6.125 3.42857 4.94975 3.42857 3.5ZM1.72177 7.875C0.774129 7.875 0 8.65101 0 9.625C0 11.1048 0.713837 12.2205 1.82999 12.947C2.92883 13.6622 4.41022 14 6 14C7.58978 14 9.07117 13.6622 10.17 12.947C11.2862 12.2205 12 11.1048 12 9.625C12 8.65862 11.2324 7.875 10.2857 7.875L1.72177 7.875ZM0.857143 9.625C0.857143 9.14086 1.24102 8.75 1.72177 8.75L10.2857 8.75C10.759 8.75 11.1429 9.14184 11.1429 9.625C11.1429 10.7702 10.6095 11.6232 9.70918 12.2092C8.79156 12.8065 7.48724 13.125 6 13.125C4.51276 13.125 3.20844 12.8065 2.29082 12.2092C1.39051 11.6232 0.857143 10.7702 0.857143 9.625Z" fill="#6D6D6D"/>
</svg>
