<svg width="20" height="20" viewBox="0 0 20 20" fill="none" xmlns="http://www.w3.org/2000/svg">
  <path fill-rule="evenodd" clip-rule="evenodd" d="M17.4925 6.96074C16.8849 5.54301 15.771 4.42909 15.771 4.42909C14.6571 3.31517 13.2393 2.70757 13.2393 2.70757C11.7204 2.09998 10.1001 2.09998 10.1001 2.09998C8.47984 2.09998 6.96086 2.70757 6.96086 2.70757C5.54314 3.31517 4.42921 4.42909 4.42921 4.42909C3.31529 5.54301 2.70769 6.96074 2.70769 6.96074C2.1001 8.47972 2.1001 10.1 2.1001 10.1C2.1001 11.7202 2.70769 13.2392 2.70769 13.2392C3.31529 14.6569 4.42921 15.7709 4.42921 15.7709C5.54314 16.8848 6.96086 17.4924 6.96086 17.4924C8.47984 18.1 10.1001 18.1 10.1001 18.1C11.7204 18.1 13.2393 17.4924 13.2393 17.4924C14.6571 16.8848 15.771 15.7709 15.771 15.7709C16.8849 14.6569 17.4925 13.2392 17.4925 13.2392C18.1001 11.7202 18.1001 10.1 18.1001 10.1C18.1001 8.47972 17.4925 6.96074 17.4925 6.96074ZM15.1634 5.03668C16.176 6.04934 16.6824 7.26453 16.6824 7.26453C17.0874 8.07466 17.1887 8.98605 17.1887 9.59365H13.7457C13.7457 6.7582 12.8343 4.63162 12.8343 4.63162C12.5305 3.92276 12.2267 3.5177 11.9229 3.2139C12.4292 3.31517 12.8343 3.5177 12.8343 3.5177C14.0495 4.02403 15.0621 5.03668 15.0621 5.03668H15.1634ZM11.0115 16.581C10.6064 16.9861 10.1001 16.9861 10.1001 16.9861C9.69503 16.9861 9.18871 16.581 9.18871 16.581C8.68238 16.0747 8.27731 15.1633 8.27731 15.1633C7.56845 13.543 7.46719 11.5177 7.36592 10.6063H12.733C12.733 13.2392 11.9229 15.062 11.8216 15.1633C11.4166 16.0747 10.9102 16.581 10.9102 16.581H11.0115ZM7.46719 9.59365C7.46719 6.96074 8.27731 5.13795 8.37858 5.03668C8.78364 4.12529 9.28997 3.61896 9.28997 3.61896C9.69503 3.2139 10.2014 3.2139 10.2014 3.2139C10.6064 3.2139 11.1128 3.61896 11.1128 3.61896C11.6191 4.12529 12.0241 5.03668 12.0241 5.03668C12.733 6.65694 12.8343 8.68225 12.9355 9.59365H7.56845H7.46719ZM5.03681 5.03668C6.04946 4.02403 7.26465 3.5177 7.26465 3.5177C7.56845 3.41643 7.87225 3.31517 8.17605 3.2139C7.66972 3.82149 7.36592 4.63162 7.36592 4.63162C6.65706 6.35314 6.45453 8.58099 6.45453 9.59365H3.01149C3.01149 8.37846 3.51782 7.3658 3.51782 7.26453C4.02415 6.04934 5.03681 5.03668 5.03681 5.03668ZM5.03681 15.1633C4.02415 14.1506 3.51782 12.9354 3.51782 12.9354C3.11276 12.024 3.01149 11.2139 3.01149 10.6063H6.45453C6.45453 13.4417 7.36592 15.5683 7.36592 15.5683C7.66972 16.2772 7.97352 16.6823 8.27731 16.9861C7.77098 16.8848 7.36592 16.6823 7.36592 16.6823C6.15073 16.1759 5.13807 15.1633 5.13807 15.1633H5.03681ZM15.1634 15.1633C14.1507 16.1759 12.9355 16.6823 12.9355 16.6823C12.6317 16.7835 12.3279 16.8848 12.0241 16.9861C12.5305 16.3785 12.8343 15.5683 12.8343 15.5683C13.5431 13.8468 13.7457 11.619 13.7457 10.6063H17.1887C17.1887 11.8215 16.6824 12.8342 16.6824 12.9354C16.176 14.1506 15.1634 15.1633 15.1634 15.1633Z" fill="#262626"/>
</svg>
