<svg width="16" height="16" viewBox="0 0 16 16" fill="none" xmlns="http://www.w3.org/2000/svg">
  <path d="M2.75 0H11.25C12.7688 0 14 1.23122 14 2.75V6.59971C13.6832 6.43777 13.3486 6.30564 13 6.20703V2.75C13 1.7835 12.2165 1 11.25 1H2.75C1.7835 1 1 1.7835 1 2.75V11.25C1 12.2165 1.7835 13 2.75 13H6.20703C6.30564 13.3486 6.43777 13.6832 6.59971 14H2.75C1.23122 14 0 12.7688 0 11.25V2.75C0 1.23122 1.23122 0 2.75 0ZM6.5 7H8.33692C7.93379 7.28389 7.57052 7.62057 7.25716 8H6.5C6.22386 8 6 7.77614 6 7.5C6 7.22386 6.22386 7 6.5 7ZM3.75 5C4.16421 5 4.5 4.66421 4.5 4.25C4.5 3.83579 4.16421 3.5 3.75 3.5C3.33579 3.5 3 3.83579 3 4.25C3 4.66421 3.33579 5 3.75 5ZM4.5 7.25C4.5 7.66421 4.16421 8 3.75 8C3.33579 8 3 7.66421 3 7.25C3 6.83579 3.33579 6.5 3.75 6.5C4.16421 6.5 4.5 6.83579 4.5 7.25ZM4.5 10.25C4.5 10.6642 4.16421 11 3.75 11C3.33579 11 3 10.6642 3 10.25C3 9.83579 3.33579 9.5 3.75 9.5C4.16421 9.5 4.5 9.83579 4.5 10.25ZM6 4.5C6 4.22386 6.22386 4 6.5 4H10.5C10.7761 4 11 4.22386 11 4.5C11 4.77614 10.7761 5 10.5 5H6.5C6.22386 5 6 4.77614 6 4.5ZM9.06572 8.44208C9.36901 9.52323 8.72301 10.6421 7.63506 10.92L7.17402 11.0378C7.15904 11.1898 7.15137 11.3439 7.15137 11.5C7.15137 11.6876 7.16247 11.8726 7.18403 12.0542L7.53358 12.1369C8.65302 12.4016 9.31901 13.5537 8.98967 14.6558L8.86333 15.0786C9.12051 15.2819 9.40025 15.4561 9.69798 15.5965L10.023 15.2524C10.8128 14.4161 12.1436 14.4168 12.9325 15.2539L13.2698 15.6119C13.5623 15.477 13.8376 15.3096 14.0917 15.1143L13.9356 14.5576C13.6323 13.4765 14.2783 12.3576 15.3662 12.0797L15.8268 11.962C15.8417 11.8101 15.8494 11.656 15.8494 11.5C15.8494 11.3122 15.8383 11.1271 15.8167 10.9454L15.4677 10.8628C14.3483 10.5982 13.6823 9.44603 14.0116 8.34389L14.1378 7.9216C13.8806 7.71831 13.6008 7.54404 13.303 7.40352L12.9783 7.74731C12.1885 8.5836 10.8577 8.5829 10.0688 7.74578L9.73144 7.38782C9.43901 7.5227 9.16362 7.69 8.90953 7.8853L9.06572 8.44208ZM11.5004 12.5C10.9481 12.5 10.5004 12.0523 10.5004 11.5C10.5004 10.9477 10.9481 10.5 11.5004 10.5C12.0527 10.5 12.5004 10.9477 12.5004 11.5C12.5004 12.0523 12.0527 12.5 11.5004 12.5Z" fill="#262626"/>
</svg>
