<svg width="32" height="32" viewBox="0 0 32 32" fill="none" xmlns="http://www.w3.org/2000/svg">
<path d="M16 14.5C16.2967 14.5 16.5867 14.588 16.8334 14.7528C17.08 14.9176 17.2723 15.1519 17.3858 15.426C17.4994 15.7001 17.5291 16.0017 17.4712 16.2926C17.4133 16.5836 17.2704 16.8509 17.0607 17.0607C16.8509 17.2704 16.5836 17.4133 16.2926 17.4712C16.0017 17.5291 15.7001 17.4993 15.426 17.3858C15.1519 17.2723 14.9176 17.08 14.7528 16.8334C14.588 16.5867 14.5 16.2967 14.5 16C14.5 15.6022 14.658 15.2206 14.9393 14.9393C15.2206 14.658 15.6022 14.5 16 14.5ZM11.5 16C11.5 15.7033 11.412 15.4133 11.2472 15.1666C11.0824 14.92 10.8481 14.7277 10.574 14.6142C10.2999 14.5006 9.99834 14.4709 9.70737 14.5288C9.41639 14.5867 9.14912 14.7296 8.93934 14.9393C8.72956 15.1491 8.5867 15.4164 8.52882 15.7074C8.47094 15.9983 8.50065 16.2999 8.61418 16.574C8.72771 16.8481 8.91997 17.0824 9.16665 17.2472C9.41332 17.412 9.70333 17.5 10 17.5C10.3978 17.5 10.7794 17.342 11.0607 17.0607C11.342 16.7794 11.5 16.3978 11.5 16ZM20.5 16C20.5 16.2967 20.588 16.5867 20.7528 16.8334C20.9176 17.08 21.1519 17.2723 21.426 17.3858C21.7001 17.4993 22.0017 17.5291 22.2926 17.4712C22.5836 17.4133 22.8509 17.2704 23.0607 17.0607C23.2704 16.8509 23.4133 16.5836 23.4712 16.2926C23.5291 16.0017 23.4993 15.7001 23.3858 15.426C23.2723 15.1519 23.08 14.9176 22.8334 14.7528C22.5867 14.588 22.2967 14.5 22 14.5C21.6022 14.5 21.2206 14.658 20.9393 14.9393C20.658 15.2206 20.5 15.6022 20.5 16Z" fill="#262626"/>
</svg>
