<svg width="21" height="21" viewBox="0 0 21 21" fill="none" xmlns="http://www.w3.org/2000/svg">
  <path d="M9.4975 2.88811C10.0677 2.37584 10.9323 2.37584 11.5025 2.88811L17.0025 7.82965C17.3191 8.11414 17.5 8.51977 17.5 8.94544V15.9996C17.5 16.828 16.8284 17.4996 16 17.4996H13.5C12.6716 17.4996 12 16.828 12 15.9996V12.4996C12 12.2234 11.7761 11.9996 11.5 11.9996H9.5C9.22386 11.9996 9 12.2234 9 12.4996V15.9996C9 16.828 8.32843 17.4996 7.5 17.4996H5C4.17157 17.4996 3.5 16.828 3.5 15.9996V8.94544C3.5 8.51977 3.68086 8.11414 3.9975 7.82965L9.4975 2.88811ZM10.8342 3.63197C10.6441 3.46122 10.3559 3.46122 10.1658 3.63197L4.66583 8.57351C4.56029 8.66834 4.5 8.80355 4.5 8.94544V15.9996C4.5 16.2757 4.72386 16.4996 5 16.4996H7.5C7.77614 16.4996 8 16.2757 8 15.9996V12.4996C8 11.6711 8.67157 10.9996 9.5 10.9996H11.5C12.3284 10.9996 13 11.6711 13 12.4996V15.9996C13 16.2757 13.2239 16.4996 13.5 16.4996H16C16.2761 16.4996 16.5 16.2757 16.5 15.9996V8.94544C16.5 8.80355 16.4397 8.66834 16.3342 8.57351L10.8342 3.63197Z" fill="#262626"/>
</svg>
