<svg width="44" height="45" viewBox="0 0 44 45" fill="none" xmlns="http://www.w3.org/2000/svg">
  <rect x="0.5" y="1" width="43" height="43" rx="5.5" fill="white"/>
  <rect x="0.5" y="1" width="43" height="43" rx="5.5" stroke="#E7E7E7"/>
  <path d="M14 17C14 16.7239 14.2239 16.5 14.5 16.5H29.5C29.7761 16.5 30 16.7239 30 17C30 17.2761 29.7761 17.5 29.5 17.5H14.5C14.2239 17.5 14 17.2761 14 17ZM14 22C14 21.7239 14.2239 21.5 14.5 21.5H29.5C29.7761 21.5 30 21.7239 30 22C30 22.2761 29.7761 22.5 29.5 22.5H14.5C14.2239 22.5 14 22.2761 14 22ZM14.5 26.5C14.2239 26.5 14 26.7239 14 27C14 27.2761 14.2239 27.5 14.5 27.5H29.5C29.7761 27.5 30 27.2761 30 27C30 26.7239 29.7761 26.5 29.5 26.5H14.5Z" fill="#262626"/>
</svg>
