<svg width="44" height="45" viewBox="0 0 44 45" fill="none" xmlns="http://www.w3.org/2000/svg">
  <rect x="0.5" y="1" width="43" height="43" rx="5.5" fill="white"/>
  <rect x="0.5" y="1" width="43" height="43" rx="5.5" stroke="#E7E7E7"/>
  <path d="M16.0886 16.7157L16.1464 16.6464C16.32 16.4729 16.5894 16.4536 16.7843 16.5886L16.8536 16.6464L22 21.793L27.1464 16.6464C27.32 16.4729 27.5894 16.4536 27.7843 16.5886L27.8536 16.6464C28.0271 16.82 28.0464 17.0894 27.9114 17.2843L27.8536 17.3536L22.707 22.5L27.8536 27.6464C28.0271 27.82 28.0464 28.0894 27.9114 28.2843L27.8536 28.3536C27.68 28.5271 27.4106 28.5464 27.2157 28.4114L27.1464 28.3536L22 23.207L16.8536 28.3536C16.68 28.5271 16.4106 28.5464 16.2157 28.4114L16.1464 28.3536C15.9729 28.18 15.9536 27.9106 16.0886 27.7157L16.1464 27.6464L21.293 22.5L16.1464 17.3536C15.9729 17.18 15.9536 16.9106 16.0886 16.7157L16.1464 16.6464L16.0886 16.7157Z" fill="#262626"/>
</svg>
