<svg width="44" height="44" viewBox="0 0 44 44" fill="none" xmlns="http://www.w3.org/2000/svg">
<rect x="43.5" y="43.5" width="43" height="43" rx="5.5" transform="rotate(-180 43.5 43.5)" fill="white"/>
<rect x="43.5" y="43.5" width="43" height="43" rx="5.5" transform="rotate(-180 43.5 43.5)" stroke="#E7E7E7"/>
<path d="M18.5 22.5L29.5 22.5C29.7761 22.5 30 22.2761 30 22C30 21.7239 29.7761 21.5 29.5 21.5L18.5 21.5C18.2239 21.5 18 21.7239 18 22C18 22.2761 18.2239 22.5 18.5 22.5Z" fill="#262626"/>
<path d="M24.6466 26.1463C24.5529 26.24 24.5 26.3674 24.5 26.5C24.5 26.6326 24.5527 26.7598 24.6464 26.8536L24.6508 26.8578C24.7441 26.9488 24.8696 27 25 27C25.1326 27 25.2598 26.9473 25.3536 26.8536L29.8536 22.3536C29.9473 22.2598 30 22.1326 30 22C30 21.8674 29.9473 21.7402 29.8536 21.6464L25.3536 17.1464C25.2598 17.0527 25.1326 17 25 17C24.8674 17 24.7402 17.0527 24.6464 17.1464C24.5527 17.2402 24.5 17.3674 24.5 17.5C24.5 17.6326 24.5527 17.7598 24.6464 17.8536L28.7929 22L24.6466 26.1463Z" fill="#262626"/>
</svg>
