<svg width="40" height="40" viewBox="0 0 40 40" fill="none" xmlns="http://www.w3.org/2000/svg">
  <rect width="40" height="40" rx="8" fill="#F3ECFB"/>
  <path d="M14.5 14C13.1193 14 12 15.1193 12 16.5V23.5C12 24.8807 13.1193 26 14.5 26H25.5C26.8807 26 28 24.8807 28 23.5V16.5C28 15.1193 26.8807 14 25.5 14H14.5ZM13 16.5C13 15.6716 13.6716 15 14.5 15H25.5C26.3284 15 27 15.6716 27 16.5V23.5C27 24.3284 26.3284 25 25.5 25H14.5C13.6716 25 13 24.3284 13 23.5V16.5ZM14.5 16C14.2239 16 14 16.2239 14 16.5C14 16.7761 14.2239 17 14.5 17H19.5C19.7761 17 20 16.7761 20 16.5C20 16.2239 19.7761 16 19.5 16H14.5ZM14.5 18C14.2239 18 14 18.2239 14 18.5C14 18.7761 14.2239 19 14.5 19H22.5C22.7761 19 23 18.7761 23 18.5C23 18.2239 22.7761 18 22.5 18H14.5ZM15 21C14.4477 21 14 21.4477 14 22V23C14 23.5523 14.4477 24 15 24H19C19.5523 24 20 23.5523 20 23V22C20 21.4477 19.5523 21 19 21H15Z" fill="#262626"/>
</svg>
