<svg width="21" height="21" viewBox="0 0 21 21" fill="none" xmlns="http://www.w3.org/2000/svg">
<path d="M10.4979 2.5C11.5874 2.5 12.6106 2.77952 13.4929 3.27024C13.2407 3.49739 13.0273 3.76671 12.8637 4.0671C12.1594 3.70498 11.3539 3.5 10.4979 3.5C7.87535 3.5 5.72741 5.42372 5.5174 7.88498L5.50417 8.09723L5.50026 8.30214V12L5.46185 12.1922L4.49914 14.5046L16.4569 14.5066L16.5021 14.5045L15.5387 12.1922L15.5003 12L15.5004 8.5C15.851 8.49996 16.1875 8.43978 16.5003 8.32921L16.4993 11.898L17.4247 14.1202C17.4472 14.1743 17.4649 14.2302 17.4776 14.2871L17.4929 14.3733L17.5015 14.5046C17.5015 14.9526 17.205 15.3387 16.7524 15.4677L16.636 15.4945L16.5015 15.5046L12.9999 15.504L12.9949 15.6653C12.9098 16.969 11.8254 18 10.5003 18C9.17478 18 8.09022 16.9685 8.00558 15.6644L7.99986 15.504L4.49915 15.5046C4.4112 15.5046 4.32383 15.493 4.23927 15.4702L4.11481 15.4277C3.70403 15.2567 3.46206 14.8392 3.51246 14.3757L3.53354 14.2483L3.57596 14.1202L4.49926 11.901L4.50035 8.29281L4.50465 8.06824C4.62726 4.95115 7.27129 2.5 10.4979 2.5ZM11.9999 15.504H8.99986L9.00722 15.6454C9.07576 16.3581 9.643 16.925 10.3558 16.9931L10.5003 17C11.28 17 11.9207 16.4051 11.9934 15.6445L11.9999 15.504ZM13.7067 4.61343C13.8574 4.30923 14.0832 4.04885 14.3599 3.85655C14.6833 3.63176 15.0763 3.5 15.5 3.5C16.6046 3.5 17.5 4.39543 17.5 5.5C17.5 6.27787 17.0559 6.95203 16.4074 7.28276C16.1351 7.42167 15.8267 7.5 15.5 7.5C15.477 7.5 15.454 7.49961 15.4312 7.49884C14.3585 7.46257 13.5 6.58154 13.5 5.5C13.5 5.18162 13.5744 4.88062 13.7067 4.61343Z" fill="#262626"/>
<circle cx="15.5" cy="5.5" r="2" fill="#683B8F"/>
</svg>
