<svg width="44" height="44" viewBox="0 0 44 44" fill="none" xmlns="http://www.w3.org/2000/svg">
<rect x="0.5" y="0.5" width="43" height="43" rx="5.5" fill="white"/>
<rect x="0.5" y="0.5" width="43" height="43" rx="5.5" stroke="#E7E7E7"/>
<path d="M25.5 21.5H14.5C14.2239 21.5 14 21.7239 14 22C14 22.2761 14.2239 22.5 14.5 22.5H25.5C25.7761 22.5 26 22.2761 26 22C26 21.7239 25.7761 21.5 25.5 21.5Z" fill="#262626"/>
<path d="M19.3534 17.8537C19.4471 17.76 19.5 17.6326 19.5 17.5C19.5 17.3674 19.4473 17.2402 19.3536 17.1464L19.3492 17.1422C19.2559 17.0512 19.1304 17 19 17C18.8674 17 18.7402 17.0527 18.6464 17.1464L14.1464 21.6464C14.0527 21.7402 14 21.8674 14 22C14 22.1326 14.0527 22.2598 14.1464 22.3536L18.6464 26.8536C18.7402 26.9473 18.8674 27 19 27C19.1326 27 19.2598 26.9473 19.3536 26.8536C19.4473 26.7598 19.5 26.6326 19.5 26.5C19.5 26.3674 19.4473 26.2402 19.3536 26.1464L15.2071 22L19.3534 17.8537Z" fill="#262626"/>
</svg>
