<svg width="252" height="44" viewBox="0 0 252 44" fill="none" xmlns="http://www.w3.org/2000/svg">
<rect width="252" height="44" rx="6" fill="white"/>
<path d="M18 14C22.4183 14 26 17.5817 26 22C26 26.4183 22.4183 30 18 30C13.5817 30 10 26.4183 10 22C10 17.5817 13.5817 14 18 14ZM18 15C14.134 15 11 18.134 11 22C11 25.866 14.134 29 18 29C21.866 29 25 25.866 25 22C25 18.134 21.866 15 18 15ZM21.3584 19.6464C21.532 19.82 21.5513 20.0894 21.4163 20.2843L21.3584 20.3536L17.3536 24.3584C17.18 24.532 16.9106 24.5513 16.7157 24.4163L16.6464 24.3584L14.6464 22.3584C14.4512 22.1632 14.4512 21.8466 14.6464 21.6513C14.82 21.4777 15.0894 21.4585 15.2843 21.5935L15.3536 21.6513L17 23.298L20.6513 19.6464C20.8466 19.4512 21.1632 19.4512 21.3584 19.6464Z" fill="#262626"/>
<path d="M45.296 28H43.472L41.904 24.448C41.36 23.232 41.04 23.04 40.064 23.04H38.928V28H37.328V16.832H40.256C43.36 16.832 44.4 17.936 44.4 19.856C44.4 21.136 43.504 22.144 42.096 22.4V22.432C42.624 22.624 42.896 22.944 43.28 23.76L45.296 28ZM38.928 21.632H40.32C41.76 21.632 42.704 20.992 42.704 19.888C42.704 18.864 41.92 18.24 40.448 18.24H38.928V21.632ZM53.3173 26.16V27.664C52.1333 28.144 51.4293 28.192 50.7573 28.192C47.9893 28.192 46.5173 26.592 46.5173 23.776C46.5173 21.312 48.0693 19.648 50.3413 19.648C52.7093 19.648 53.9413 21.152 53.9413 24.256H48.1173C48.1332 25.888 49.3813 26.976 50.8053 26.976C51.6693 26.976 52.8053 26.56 53.3173 26.16ZM48.1173 23.136H52.3413C52.3253 21.824 51.5733 20.864 50.2933 20.864C49.0933 20.864 48.2773 21.728 48.1173 23.136ZM50.2453 19.008H49.1733L50.5973 16.704H52.3413L50.2453 19.008ZM62.3679 28H60.9599V26.944H60.9279C60.3519 27.744 59.4559 28.192 58.3839 28.192C56.4959 28.192 55.4079 27.296 55.4079 25.648C55.4079 23.92 57.0559 22.96 59.3119 22.96C59.9519 22.96 60.4639 22.976 60.7999 22.992C60.7999 21.504 60.2079 20.864 58.7839 20.864C57.9679 20.864 57.0719 21.152 56.4159 21.696L56.3359 20.416C57.0879 19.968 57.9839 19.648 59.0239 19.648C61.2799 19.648 62.3039 20.72 62.3039 23.008V26.592C62.3039 27.088 62.3199 27.616 62.3679 28ZM60.7999 24.832V24.112C60.7999 24.112 60.1279 24.08 59.8239 24.08C58.1279 24.08 57.0079 24.592 57.0079 25.648C57.0079 26.432 57.7279 26.976 58.5439 26.976C59.9519 26.976 60.7999 26.096 60.7999 24.832ZM70.1065 26.512L70.2185 27.856C69.7065 28.08 69.1625 28.192 68.3305 28.192C65.8505 28.192 64.1705 26.24 64.1705 23.92C64.1705 21.424 65.8345 19.648 68.3305 19.648C68.9225 19.648 69.7225 19.792 70.1545 19.968L70.0265 21.216C69.4505 20.976 68.8905 20.864 68.3945 20.864C66.7465 20.864 65.7705 22.336 65.7705 23.92C65.7705 25.392 66.5705 26.976 68.4905 26.976C69.0025 26.976 69.6425 26.816 70.1065 26.512ZM76.4159 26.688V27.968C76.0159 28.08 75.5999 28.192 75.1199 28.192C73.4399 28.192 72.6239 27.312 72.6239 25.84V21.056H70.7839V19.84H72.6239V17.952L74.1279 17.472V19.84H76.2879V21.056H74.1279V25.552C74.1279 26.304 74.5759 26.976 75.3919 26.976C75.8879 26.976 76.2079 26.816 76.4159 26.688ZM79.9626 18.016H78.2666V16.32H79.9626V18.016ZM79.8666 28H78.3626V19.84H79.8666V28ZM86.2398 28H84.4478L81.5198 19.84H83.1678L85.3758 26.496H85.4078L87.6638 19.84H89.1678L86.2398 28ZM96.8798 26.16V27.664C95.6958 28.144 94.9918 28.192 94.3198 28.192C91.5518 28.192 90.0798 26.592 90.0798 23.776C90.0798 21.312 91.6318 19.648 93.9038 19.648C96.2718 19.648 97.5038 21.152 97.5038 24.256H91.6798C91.6957 25.888 92.9438 26.976 94.3678 26.976C95.2318 26.976 96.3678 26.56 96.8798 26.16ZM91.6798 23.136H95.9038C95.8878 21.824 95.1358 20.864 93.8558 20.864C92.6558 20.864 91.8398 21.728 91.6798 23.136ZM101.018 28H99.5144V19.84H100.922V21.104H100.954C101.37 20.224 102.234 19.648 103.098 19.648C103.418 19.648 103.706 19.68 104.074 19.76V21.104C103.802 20.992 103.498 20.96 103.242 20.96C101.866 20.96 101.018 22.288 101.018 24.288V28Z" fill="#262626"/>
</svg>
