<svg width="20" height="21" viewBox="0 0 20 21" fill="none" xmlns="http://www.w3.org/2000/svg">
  <path d="M10 2.5C14.4183 2.5 18 6.08172 18 10.5C18 14.9183 14.4183 18.5 10 18.5C5.58172 18.5 2 14.9183 2 10.5C2 6.08172 5.58172 2.5 10 2.5ZM10 3.5C6.13401 3.5 3 6.63401 3 10.5C3 14.366 6.13401 17.5 10 17.5C13.866 17.5 17 14.366 17 10.5C17 6.63401 13.866 3.5 10 3.5ZM10 13C10.4142 13 10.75 13.3358 10.75 13.75C10.75 14.1642 10.4142 14.5 10 14.5C9.58579 14.5 9.25 14.1642 9.25 13.75C9.25 13.3358 9.58579 13 10 13ZM10 6.5C10.2455 6.5 10.4496 6.67688 10.4919 6.91012L10.5 7V11.5C10.5 11.7761 10.2761 12 10 12C9.75454 12 9.55039 11.8231 9.50806 11.5899L9.5 11.5V7C9.5 6.72386 9.72386 6.5 10 6.5Z" fill="#262626"/>
</svg>
