<svg width="21" height="21" viewBox="0 0 21 21" fill="none" xmlns="http://www.w3.org/2000/svg">
  <path d="M10.9102 2.5C15.3284 2.5 18.9102 6.08172 18.9102 10.5C18.9102 14.9183 15.3284 18.5 10.9102 18.5C6.49188 18.5 2.91016 14.9183 2.91016 10.5C2.91016 6.08172 6.49188 2.5 10.9102 2.5ZM10.9102 3.5C7.04416 3.5 3.91016 6.63401 3.91016 10.5C3.91016 14.366 7.04416 17.5 10.9102 17.5C14.7761 17.5 17.9102 14.366 17.9102 10.5C17.9102 6.63401 14.7761 3.5 10.9102 3.5ZM10.9102 13C11.3244 13 11.6602 13.3358 11.6602 13.75C11.6602 14.1642 11.3244 14.5 10.9102 14.5C10.4959 14.5 10.1602 14.1642 10.1602 13.75C10.1602 13.3358 10.4959 13 10.9102 13ZM10.9102 6.5C11.1556 6.5 11.3598 6.67688 11.4021 6.91012L11.4102 7V11.5C11.4102 11.7761 11.1863 12 10.9102 12C10.6647 12 10.4605 11.8231 10.4182 11.5899L10.4102 11.5V7C10.4102 6.72386 10.634 6.5 10.9102 6.5Z" fill="#262626"/>
</svg>
