<svg width="32" height="32" viewBox="0 0 32 32" fill="none" xmlns="http://www.w3.org/2000/svg">
<path d="M16 10C19.3137 10 22 12.6863 22 16C22 19.3137 19.3137 22 16 22C12.6863 22 10 19.3137 10 16C10 15.8444 10.0059 15.6903 10.0175 15.5379C10.0385 15.2626 9.83222 15.0224 9.55687 15.0014C9.28152 14.9805 9.04133 15.1867 9.02038 15.4621C9.00687 15.6397 9 15.8191 9 16C9 19.866 12.134 23 16 23C19.866 23 23 19.866 23 16C23 12.134 19.866 9 16 9C14.0409 9 12.2701 9.80499 11 11.1011V9.5C11 9.22386 10.7761 9 10.5 9C10.2239 9 10 9.22386 10 9.5V12.5C10 12.7761 10.2239 13 10.5 13H13.5C13.7761 13 14 12.7761 14 12.5C14 12.2239 13.7761 12 13.5 12H11.5277C12.6268 10.7719 14.2234 10 16 10ZM16 12.5C16 12.2239 15.7761 12 15.5 12C15.2239 12 15 12.2239 15 12.5V16.5C15 16.7761 15.2239 17 15.5 17H18.5C18.7761 17 19 16.7761 19 16.5C19 16.2239 18.7761 16 18.5 16H16V12.5Z" fill="#262626"/>
</svg>
