<svg width="12" height="17" viewBox="0 0 12 17" fill="none" xmlns="http://www.w3.org/2000/svg">
  <path d="M2 0.5C0.89543 0.5 0 1.39543 0 2.5V14.5C0 15.6046 0.89543 16.5 2 16.5H10C11.1046 16.5 12 15.6046 12 14.5V5.91421C12 5.51639 11.842 5.13486 11.5607 4.85355L7.64645 0.93934C7.36514 0.658035 6.98361 0.5 6.58579 0.5H2ZM1 2.5C1 1.94772 1.44772 1.5 2 1.5H6V5C6 5.82843 6.67157 6.5 7.5 6.5H11V14.5C11 15.0523 10.5523 15.5 10 15.5H2C1.44772 15.5 1 15.0523 1 14.5V2.5ZM10.7929 5.5H7.5C7.22386 5.5 7 5.27614 7 5V1.70711L10.7929 5.5Z" fill="#262626"/>
</svg>
