<svg width="15" height="17" viewBox="0 0 15 17" fill="none" xmlns="http://www.w3.org/2000/svg">
  <path d="M5 0C3.89543 0 3 0.895431 3 2V7.20703C3.32228 7.11588 3.65659 7.05337 4 7.02242V2C4 1.44772 4.44772 1 5 1H9V4.5C9 5.32843 9.67157 6 10.5 6H14V14C14 14.5523 13.5523 15 13 15H9.40029C9.21739 15.3578 8.99647 15.6929 8.74284 16H13C14.1046 16 15 15.1046 15 14V5.41421C15 5.01639 14.842 4.63486 14.5607 4.35355L10.6464 0.43934C10.3651 0.158035 9.98361 0 9.58579 0H5ZM13.7929 5H10.5C10.2239 5 10 4.77614 10 4.5V1.20711L13.7929 5ZM4.5 17C6.98528 17 9 14.9853 9 12.5C9 10.0147 6.98528 8 4.5 8C2.01472 8 0 10.0147 0 12.5C0 14.9853 2.01472 17 4.5 17ZM6.85353 12.1465C7.04879 12.3418 7.04879 12.6583 6.85353 12.8536C6.65826 13.0489 6.34168 13.0489 6.14642 12.8536L4.99997 11.7072L4.99997 14.5001C4.99997 14.7762 4.77612 15.0001 4.49997 15.0001C4.22383 15.0001 3.99997 14.7762 3.99997 14.5001L3.99997 11.7072L2.85353 12.8536C2.65826 13.0489 2.34168 13.0489 2.14642 12.8536C1.95116 12.6583 1.95116 12.3418 2.14642 12.1465L4.14642 10.1465C4.19436 10.0986 4.24961 10.0624 4.30858 10.038C4.36666 10.0139 4.43027 10.0005 4.49697 10.0001L4.49997 10.0001L4.50297 10.0001C4.56967 10.0005 4.63328 10.0139 4.69136 10.038C4.74947 10.062 4.80396 10.0975 4.8514 10.1444L4.85392 10.1469L6.85353 12.1465Z" fill="#262626"/>
</svg>
