<svg width="21" height="21" viewBox="0 0 21 21" fill="none" xmlns="http://www.w3.org/2000/svg">
  <path d="M6.91016 2.5C5.80559 2.5 4.91016 3.39543 4.91016 4.5V16.5C4.91016 17.6046 5.80559 18.5 6.91016 18.5H14.9102C16.0147 18.5 16.9102 17.6046 16.9102 16.5V7.91421C16.9102 7.51639 16.7521 7.13486 16.4708 6.85355L12.5566 2.93934C12.2753 2.65804 11.8938 2.5 11.4959 2.5H6.91016ZM5.91016 4.5C5.91016 3.94772 6.35787 3.5 6.91016 3.5H10.9102V7C10.9102 7.82843 11.5817 8.5 12.4102 8.5H15.9102V16.5C15.9102 17.0523 15.4624 17.5 14.9102 17.5H6.91016C6.35787 17.5 5.91016 17.0523 5.91016 16.5V4.5ZM15.703 7.5H12.4102C12.134 7.5 11.9102 7.27614 11.9102 7V3.70711L15.703 7.5Z" fill="#262626"/>
</svg>
