<svg width="40" height="40" viewBox="0 0 40 40" fill="none" xmlns="http://www.w3.org/2000/svg">
    <rect width="40" height="40" rx="8" fill="#F3ECFB"/>
    <path d="M19.4212 27H17C16.4477 27 16 26.5523 16 26V14C16 13.4477 16.4477 13 17 13H23C23.5523 13 24 13.4477 24 14V19.0224C24.1646 19.0076 24.3313 19 24.4998 19C24.6684 19 24.8353 19.0076 25 19.0224V14C25 12.8954 24.1046 12 23 12H17C15.8954 12 15 12.8954 15 14V26C15 27.1046 15.8954 28 17 28H19.1167L19.4212 27ZM24.5 29C26.9853 29 29 26.9853 29 24.5C29 22.0147 26.9853 20 24.5 20C22.0147 20 20 22.0147 20 24.5C20 25.2918 20.2045 26.0358 20.5635 26.6821L20.0189 28.4707C19.9236 28.7838 20.2162 29.0765 20.5294 28.9812L22.3185 28.4368C22.9647 28.7956 23.7085 29 24.5 29ZM22 23.5C22 23.2239 22.2239 23 22.5 23H26.5C26.7761 23 27 23.2239 27 23.5C27 23.7761 26.7761 24 26.5 24H22.5C22.2239 24 22 23.7761 22 23.5ZM22.5 26C22.2239 26 22 25.7761 22 25.5C22 25.2239 22.2239 25 22.5 25H24.5C24.7761 25 25 25.2239 25 25.5C25 25.7761 24.7761 26 24.5 26H22.5Z" fill="#262626"/>
</svg>
