<svg width="20" height="20" viewBox="0 0 20 20" fill="none" xmlns="http://www.w3.org/2000/svg">
<path d="M15.5 16.9978C15.7761 16.9978 16 17.2216 16 17.4978C16 17.7432 15.8231 17.9474 15.5899 17.9897L15.5 17.9978H4.5C4.22386 17.9978 4 17.7739 4 17.4978C4 17.2523 4.17688 17.0482 4.41012 17.0058L4.5 16.9978H15.5ZM10.0001 2C10.2456 2 10.4497 2.17701 10.492 2.41027L10.5 2.50015L10.496 14.294L14.1414 10.6457C14.3148 10.4719 14.5842 10.4524 14.7792 10.5872L14.8485 10.645C15.0222 10.8184 15.0418 11.0878 14.907 11.2828L14.8492 11.3521L10.3574 15.8521C10.285 15.9248 10.1957 15.9704 10.1021 15.9892L9.99608 15.9989C9.83511 15.9989 9.69192 15.9228 9.60051 15.8046L5.14386 11.3527C4.94846 11.1576 4.94823 10.841 5.14336 10.6456C5.3168 10.4719 5.58621 10.4524 5.78117 10.5873L5.85046 10.6451L9.496 14.286L9.5 2.49985C9.50008 2.22371 9.724 2 10.0001 2Z" fill="#262626"/>
</svg>
