<svg width="17" height="17" viewBox="0 0 17 17" fill="none" xmlns="http://www.w3.org/2000/svg">
  <path d="M7 0C4.79086 0 3 1.79086 3 4C3 6.20914 4.79086 8 7 8C9.20914 8 11 6.20914 11 4C11 1.79086 9.20914 0 7 0ZM4 4C4 2.34315 5.34315 1 7 1C8.65685 1 10 2.34315 10 4C10 5.65685 8.65685 7 7 7C5.34315 7 4 5.65685 4 4ZM2.00873 9C0.903151 9 0 9.88687 0 11C0 12.6912 0.83281 13.9663 2.13499 14.7966C3.41697 15.614 5.14526 16 7 16H7.00488C7.00457 15.703 7.07175 15.398 7.21836 15.1044L7.27202 14.997C7.18196 14.999 7.09128 15 7 15C5.26489 15 3.74318 14.636 2.67262 13.9534C1.62226 13.2837 1 12.3088 1 11C1 10.4467 1.44786 10 2.00873 10L9.7677 10L10.2671 9L2.00873 9ZM11.6029 8.55356L8.10678 15.552C7.77438 16.2174 8.2583 17 9.00216 17H15.9978C16.7419 17 17.2258 16.2171 16.893 15.5517L13.3935 8.55322C13.0246 7.81544 11.9716 7.81564 11.6029 8.55356ZM12.9983 10.4951V13.4974C12.9983 13.7738 12.7743 13.9978 12.4979 13.9978C12.2215 13.9978 11.9975 13.7738 11.9975 13.4974V10.4951C11.9975 10.2187 12.2215 9.9947 12.4979 9.9947C12.7743 9.9947 12.9983 10.2187 12.9983 10.4951ZM12.4979 15.9993C12.2215 15.9993 11.9975 15.7753 11.9975 15.499C11.9975 15.2226 12.2215 14.9986 12.4979 14.9986C12.7743 14.9986 12.9983 15.2226 12.9983 15.499C12.9983 15.7753 12.7743 15.9993 12.4979 15.9993Z" fill="#262626"/>
</svg>
