<svg width="14" height="17" viewBox="0 0 14 17" fill="none" xmlns="http://www.w3.org/2000/svg">
  <path d="M7 0.5C4.79086 0.5 3 2.29086 3 4.5C3 6.70914 4.79086 8.5 7 8.5C9.20914 8.5 11 6.70914 11 4.5C11 2.29086 9.20914 0.5 7 0.5ZM4 4.5C4 2.84315 5.34315 1.5 7 1.5C8.65685 1.5 10 2.84315 10 4.5C10 6.15685 8.65685 7.5 7 7.5C5.34315 7.5 4 6.15685 4 4.5ZM2.00873 9.5C0.903151 9.5 0 10.3869 0 11.5C0 13.1912 0.83281 14.4663 2.13499 15.2966C3.41697 16.114 5.14526 16.5 7 16.5C8.85474 16.5 10.583 16.114 11.865 15.2966C13.1672 14.4663 14 13.1912 14 11.5C14 10.3956 13.1045 9.50001 12 9.50001L2.00873 9.5ZM1 11.5C1 10.9467 1.44786 10.5 2.00873 10.5L12 10.5C12.5522 10.5 13 10.9478 13 11.5C13 12.8088 12.3777 13.7837 11.3274 14.4534C10.2568 15.136 8.73511 15.5 7 15.5C5.26489 15.5 3.74318 15.136 2.67262 14.4534C1.62226 13.7837 1 12.8088 1 11.5Z" fill="#262626"/>
</svg>
