<svg width="24" height="24" viewBox="0 0 24 24" fill="none" xmlns="http://www.w3.org/2000/svg">
<circle cx="12" cy="12" r="12" fill="#AC9961"/>
<path d="M12.6268 12L15.8668 8.75995C15.9396 8.67493 15.9776 8.56556 15.9733 8.45371C15.969 8.34185 15.9226 8.23575 15.8435 8.15659C15.7643 8.07744 15.6582 8.03107 15.5463 8.02675C15.4345 8.02243 15.3251 8.06048 15.2401 8.13329L12.0001 11.3733L8.7601 8.12884C8.67507 8.05603 8.56571 8.01798 8.45385 8.0223C8.34199 8.02662 8.23589 8.07299 8.15674 8.15215C8.07758 8.2313 8.03121 8.33741 8.02689 8.44926C8.02257 8.56112 8.06062 8.67049 8.13343 8.75551L11.3734 12L8.12899 15.24C8.08246 15.2798 8.04467 15.3288 8.018 15.384C7.99132 15.4391 7.97633 15.4992 7.97396 15.5604C7.9716 15.6216 7.98191 15.6826 8.00426 15.7397C8.0266 15.7967 8.06049 15.8485 8.10381 15.8918C8.14712 15.9351 8.19892 15.969 8.25595 15.9913C8.31299 16.0137 8.37402 16.024 8.43523 16.0216C8.49644 16.0193 8.5565 16.0043 8.61164 15.9776C8.66678 15.9509 8.71581 15.9131 8.75565 15.8666L12.0001 12.6266L15.2401 15.8666C15.3251 15.9394 15.4345 15.9775 15.5463 15.9732C15.6582 15.9688 15.7643 15.9225 15.8435 15.8433C15.9226 15.7642 15.969 15.6581 15.9733 15.5462C15.9776 15.4343 15.9396 15.325 15.8668 15.24L12.6268 12Z" fill="white"/>
</svg>
