<svg width="40" height="40" viewBox="0 0 40 40" fill="none" xmlns="http://www.w3.org/2000/svg">
<path d="M20 0C31.0457 0 40 8.9543 40 20C40 31.0457 31.0457 40 20 40C8.9543 40 0 31.0457 0 20C0 8.9543 8.9543 0 20 0ZM20 2.5C10.335 2.5 2.5 10.335 2.5 20C2.5 29.665 10.335 37.5 20 37.5C29.665 37.5 37.5 29.665 37.5 20C37.5 10.335 29.665 2.5 20 2.5ZM13.7824 12.025L13.8839 12.1161L20 18.233L26.1161 12.1161C26.5717 11.6605 27.2915 11.6301 27.7824 12.025L27.8839 12.1161C28.3395 12.5717 28.3699 13.2915 27.975 13.7824L27.8839 13.8839L21.767 20L27.8839 26.1161C28.3395 26.5717 28.3699 27.2915 27.975 27.7824L27.8839 27.8839C27.4283 28.3395 26.7085 28.3699 26.2176 27.975L26.1161 27.8839L20 21.767L13.8839 27.8839C13.4283 28.3395 12.7085 28.3699 12.2176 27.975L12.1161 27.8839C11.6605 27.4283 11.6301 26.7085 12.025 26.2176L12.1161 26.1161L18.233 20L12.1161 13.8839C11.6605 13.4283 11.6301 12.7085 12.025 12.2176L12.1161 12.1161C12.5717 11.6605 13.2915 11.6301 13.7824 12.025Z" fill="#f8f9fa"/>
</svg>
