<svg width="160" height="160" viewBox="0 0 160 160" fill="none" xmlns="http://www.w3.org/2000/svg">
  <path d="M160 80C160 91.8811 157.405 103.168 152.746 113.308C140.119 140.865 112.292 160 80 160C47.7081 160 19.8811 140.865 7.25405 113.308C2.59459 103.168 0 91.8811 0 80C0 35.8162 35.8162 0 80 0C124.184 0 160 35.8162 160 80Z" fill="#FAF7FD"/>
  <mask id="mask0_6049_6180" style="mask-type:alpha" maskUnits="userSpaceOnUse" x="0" y="0" width="160" height="160">
    <path d="M160 80C160 91.8811 157.405 103.168 152.746 113.308C140.119 140.865 112.292 160 80 160C47.7081 160 19.8811 140.865 7.25405 113.308C2.59459 103.168 0 91.8811 0 80C0 35.8162 35.8162 0 80 0C124.184 0 160 35.8162 160 80Z" fill="#F3ECFB"/>
  </mask>
  <g mask="url(#mask0_6049_6180)">
    <path d="M39.1667 101H120.833L135 114H25L39.1667 101Z" fill="#381952"/>
    <rect x="43" y="52" width="74" height="82" rx="3" fill="#D7C2F0"/>
    <path d="M56 114H25V215H135V114H105L101 127H60L56 114Z" fill="#9056C7"/>
  </g>
  <path d="M79.024 101.356C78.192 101.356 77.488 101.148 76.912 100.732C76.336 100.284 76.048 99.5637 76.048 98.5717C76.048 98.0597 76.144 97.4357 76.336 96.6997C76.56 95.9317 76.864 95.1317 77.248 94.2997C77.632 93.4357 78.112 92.5877 78.688 91.7557C79.264 90.8917 79.936 90.0917 80.704 89.3557C81.28 88.7797 81.76 88.2517 82.144 87.7717C82.56 87.2917 82.88 86.8437 83.104 86.4277C83.328 85.9797 83.488 85.5477 83.584 85.1317C83.68 84.6837 83.728 84.1877 83.728 83.6437C83.728 82.3317 83.36 81.4517 82.624 81.0037C81.888 80.5237 81.008 80.2997 79.984 80.3317C78.96 80.3637 78.048 80.5717 77.248 80.9557C76.448 81.3397 76.048 81.9477 76.048 82.7797C76.048 83.6117 75.68 84.2357 74.944 84.6517C74.208 85.0677 73.456 85.2757 72.688 85.2757C71.728 85.2437 71.04 85.0197 70.624 84.6037C70.208 84.1877 70 83.5797 70 82.7797C70 81.6597 70.256 80.6357 70.768 79.7077C71.312 78.7477 72.032 77.9317 72.928 77.2597C73.856 76.5877 74.928 76.0597 76.144 75.6757C77.392 75.2597 78.72 75.0357 80.128 75.0037C81.504 74.9717 82.784 75.1477 83.968 75.5317C85.152 75.8837 86.16 76.4437 86.992 77.2117C87.856 77.9797 88.512 78.9237 88.96 80.0437C89.44 81.1637 89.664 82.4597 89.632 83.9317C89.6 85.2117 89.344 86.4277 88.864 87.5797C88.416 88.6997 87.504 89.9157 86.128 91.2277C85.2 92.1237 84.464 92.9077 83.92 93.5797C83.376 94.2197 82.96 94.8117 82.672 95.3557C82.384 95.8677 82.192 96.3797 82.096 96.8917C82.032 97.4037 82 97.9637 82 98.5717C82 99.4997 81.712 100.204 81.136 100.684C80.56 101.132 79.856 101.356 79.024 101.356ZM79.024 111.724C79.952 111.724 80.72 111.42 81.328 110.812C81.968 110.172 82.288 109.388 82.288 108.46C82.288 107.532 81.968 106.764 81.328 106.156C80.72 105.516 79.952 105.196 79.024 105.196C78.096 105.196 77.312 105.516 76.672 106.156C76.064 106.764 75.76 107.532 75.76 108.46C75.76 109.388 76.064 110.172 76.672 110.812C77.312 111.42 78.096 111.724 79.024 111.724Z" fill="#7B43AD"/>
</svg>

