<svg width="21" height="21" viewBox="0 0 21 21" fill="none" xmlns="http://www.w3.org/2000/svg">
  <path d="M7.57682 3.5C7.84729 3.5 8.11167 3.5731 8.34254 3.71016L8.47682 3.8L10.0772 5H15.9102C17.1804 5 18.2294 5.94737 18.3891 7.17409L18.4048 7.33562L18.4102 7.5V15C18.4102 16.3255 17.3786 17.41 16.0745 17.4947L15.9102 17.5H4.91016C3.58467 17.5 2.50012 16.4685 2.41547 15.1644L2.41016 15V6C2.41016 4.67452 3.44169 3.58996 4.74578 3.50532L4.91016 3.5H7.57682ZM8.56779 7.53449C8.32006 7.7946 7.98853 7.95592 7.63451 7.99219L7.48159 8L3.41016 7.999V15C3.41016 15.7797 4.00504 16.4204 4.7657 16.4931L4.91016 16.5H15.9102C16.6899 16.5 17.3306 15.9051 17.4033 15.1445L17.4102 15V7.5C17.4102 6.7203 16.8153 6.07955 16.0546 6.00687L15.9102 6H10.0272L8.56779 7.53449ZM7.57682 4.5H4.91016C4.13046 4.5 3.48971 5.09489 3.41702 5.85554L3.41016 6V6.999L7.48159 7C7.59106 7 7.6967 6.96411 7.7829 6.89902L7.84366 6.84483L9.10416 5.521L7.87682 4.6C7.81191 4.55132 7.73647 4.51941 7.65717 4.5065L7.57682 4.5Z" fill="#262626"/>
</svg>
