<svg width="44" height="44" viewBox="0 0 44 44" fill="none" xmlns="http://www.w3.org/2000/svg">
<rect x="0.5" y="0.5" width="43" height="43" rx="5.5" fill="white"/>
<rect x="0.5" y="0.5" width="43" height="43" rx="5.5" stroke="#E7E7E7"/>
<path d="M22.1464 26.8536C21.9512 26.6583 21.9512 26.3417 22.1464 26.1464L26.2929 22L22.1464 17.8536C21.9512 17.6583 21.9512 17.3417 22.1464 17.1464C22.3417 16.9512 22.6583 16.9512 22.8536 17.1464L27.3536 21.6464C27.5488 21.8417 27.5488 22.1583 27.3536 22.3536L22.8536 26.8536C22.6583 27.0488 22.3417 27.0488 22.1464 26.8536Z" fill="#262626"/>
<path d="M17.1464 26.8536C16.9512 26.6583 16.9512 26.3417 17.1464 26.1464L21.2929 22L17.1464 17.8536C16.9512 17.6583 16.9512 17.3417 17.1464 17.1464C17.3417 16.9512 17.6583 16.9512 17.8536 17.1464L22.3536 21.6464C22.5488 21.8417 22.5488 22.1583 22.3536 22.3536L17.8536 26.8536C17.6583 27.0488 17.3417 27.0488 17.1464 26.8536Z" fill="#262626"/>
</svg>
