<svg width="44" height="44" viewBox="0 0 44 44" fill="none" xmlns="http://www.w3.org/2000/svg">
  <rect x="0.5" y="0.5" width="43" height="43" rx="5.5" fill="white"/>
  <rect x="0.5" y="0.5" width="43" height="43" rx="5.5" stroke="#E7E7E7"/>
  <path d="M21.8536 17.1464C22.0488 17.3417 22.0488 17.6583 21.8536 17.8536L17.7071 22L21.8536 26.1464C22.0488 26.3417 22.0488 26.6583 21.8536 26.8536C21.6583 27.0488 21.3417 27.0488 21.1464 26.8536L16.6464 22.3536C16.4512 22.1583 16.4512 21.8417 16.6464 21.6464L21.1464 17.1464C21.3417 16.9512 21.6583 16.9512 21.8536 17.1464Z" fill="#262626"/>
  <path d="M26.8536 17.1464C27.0488 17.3417 27.0488 17.6583 26.8536 17.8536L22.7071 22L26.8536 26.1464C27.0488 26.3417 27.0488 26.6583 26.8536 26.8536C26.6583 27.0488 26.3417 27.0488 26.1464 26.8536L21.6464 22.3536C21.4512 22.1583 21.4512 21.8417 21.6464 21.6464L26.1464 17.1464C26.3417 16.9512 26.6583 16.9512 26.8536 17.1464Z" fill="#262626"/>
</svg>
