<svg width="17" height="17" viewBox="0 0 17 17" fill="none" xmlns="http://www.w3.org/2000/svg">
  <path d="M8.41016 0.5C12.8284 0.5 16.4102 4.08172 16.4102 8.5C16.4102 12.9183 12.8284 16.5 8.41016 16.5C3.99188 16.5 0.410156 12.9183 0.410156 8.5C0.410156 4.08172 3.99188 0.5 8.41016 0.5ZM8.41016 1.5C4.54416 1.5 1.41016 4.63401 1.41016 8.5C1.41016 12.366 4.54416 15.5 8.41016 15.5C12.2761 15.5 15.4102 12.366 15.4102 8.5C15.4102 4.63401 12.2761 1.5 8.41016 1.5ZM8.41016 11C8.82437 11 9.16016 11.3358 9.16016 11.75C9.16016 12.1642 8.82437 12.5 8.41016 12.5C7.99594 12.5 7.66016 12.1642 7.66016 11.75C7.66016 11.3358 7.99594 11 8.41016 11ZM8.41016 4.5C8.65562 4.5 8.85977 4.67688 8.9021 4.91012L8.91016 5V9.5C8.91016 9.77614 8.6863 10 8.41016 10C8.1647 10 7.96055 9.82312 7.91821 9.58988L7.91016 9.5V5C7.91016 4.72386 8.13401 4.5 8.41016 4.5Z" fill="#262626"/>
</svg>
