<svg width="30" height="30" viewBox="0 0 30 30" fill="none" xmlns="http://www.w3.org/2000/svg">
  <path d="M7.5 7.5L10 5M10 5L7.5 2.5M10 5H7.5C4.73858 5 2.5 7.23858 2.5 10M22.5 22.5L20 25M20 25L22.5 27.5M20 25H22.5C25.2614 25 27.5 22.7614 27.5 20M12.7363 8.125C13.5689 4.8902 16.5053 2.5 20 2.5C24.1421 2.5 27.5 5.85786 27.5 10C27.5 13.4947 25.1098 16.4311 21.8751 17.2637M17.5 20C17.5 24.1421 14.1421 27.5 10 27.5C5.85786 27.5 2.5 24.1421 2.5 20C2.5 15.8579 5.85786 12.5 10 12.5C14.1421 12.5 17.5 15.8579 17.5 20Z" stroke="#262626" stroke-width="1.8" stroke-linecap="round" stroke-linejoin="round"/>
</svg>
